*************************************************************

Hitchcock 2012 BluRay 1080p DTS x264 - alrmothe

*************************************************************

TiTLE : Hitchcock 
YEAR: 2012
GENRE : Biography | Drama 
imdb URL :http://www.imdb.com/title/tt0975645/
Format: Matroska
Format version: Version 4 / Version 2
File size:  6.05 GiB
Duration:  1h 38mn
Sub:English,Arabic,swedish,Dutch,italian,portuguese,spanish
 
*************************************************************

Video
Format : AVC 
Format/Info : Advanced Video Codec 
Format profile : High@L4.1 
Format settings, CABAC : Yes 
Format settings, ReFrames : 9 frames  
Codec ID : V_MPEG4/ISO/AVC  
Bit rate : 7292 Kbps 
Width : 1920 pixels 
Height : 800 pixels 
Display aspect ratio : 16:9 
Frame rate : 23.976 fps 
Color space : YUV 
Chroma subsampling : 4:2:0 
Bit depth : 8 bits 
Scan type : Progressive 
Bits/(Pixel*Frame) : 0.198 
Stream size: 4.89 GiB (81%)
Title:Hitchcock 2012 BluRay 1080p DTS x264 - alrmothe


Audio 
Format: DTS
Format/Info: Digital Theater Systems
Mode: 16
Format settings, Endianness: Big
Codec ID: A_DTS
Bit rate mode: Constant
Bit rate : 1510 Kbps
Channel(s) : 6 channels
Channel positions: Front: L C R, Side: L R, LFE
Sampling rate: 48.0 KHz
Bit depth: 24 bits
Compression mode: Lossy
Stream size: 1.04 GiB (17%)
Language : English




*************************************************************

Screenshots 
http://img138.imageshack.us/img138/5649/61991726.png 
http://img23.imageshack.us/img23/2663/34321674.png 
http://img534.imageshack.us/img534/8320/41379402.png 
http://img850.imageshack.us/img850/6757/58899454.png 
http://img819.imageshack.us/img819/5664/44451073.png 
http://img268.imageshack.us/img268/8059/11293709.png 
http://img268.imageshack.us/img268/9527/35735930.png 
http://img687.imageshack.us/img687/3291/hitchcock2012bluray1080.jpg